<svg xmlns="http://www.w3.org/2000/svg" viewBox="0 0 64 64"><title>Artboard-2</title><g id="Calendar-2" data-name="Calendar"><path d="M58,10H56a1,1,0,0,0-1,1v3a1.983,1.983,0,0,1-.587,1.413A2.024,2.024,0,0,1,52.852,16,2.129,2.129,0,0,1,51,13.831V11a1,1,0,0,0-1-1H42a1,1,0,0,0-1,1v3a1.983,1.983,0,0,1-.587,1.413A2.03,2.03,0,0,1,38.852,16,2.129,2.129,0,0,1,37,13.831V11a1,1,0,0,0-1-1H28a1,1,0,0,0-1,1v3a1.983,1.983,0,0,1-.587,1.413A2.028,2.028,0,0,1,24.852,16,2.129,2.129,0,0,1,23,13.831V11a1,1,0,0,0-1-1H14a1,1,0,0,0-1,1v3a1.983,1.983,0,0,1-.587,1.413A2.026,2.026,0,0,1,10.852,16,2.129,2.129,0,0,1,9,13.831V11a1,1,0,0,0-1-1H6a6.006,6.006,0,0,0-6,6V54a6.006,6.006,0,0,0,6,6H58a6.006,6.006,0,0,0,6-6V16A6.006,6.006,0,0,0,58,10Z" style="fill:#e6edff"/><path d="M58,10H56a1,1,0,0,0-1,1v3a1.983,1.983,0,0,1-.587,1.413A2.024,2.024,0,0,1,52.852,16,2.129,2.129,0,0,1,51,13.831V11a1,1,0,0,0-1-1H42a1,1,0,0,0-1,1v3a1.983,1.983,0,0,1-.587,1.413A2.03,2.03,0,0,1,38.852,16,2.129,2.129,0,0,1,37,13.831V11a1,1,0,0,0-1-1H28a1,1,0,0,0-1,1v3a1.983,1.983,0,0,1-.587,1.413A2.028,2.028,0,0,1,24.852,16,2.129,2.129,0,0,1,23,13.831V11a1,1,0,0,0-1-1H14a1,1,0,0,0-1,1v3a1.983,1.983,0,0,1-.587,1.413A2.026,2.026,0,0,1,10.852,16,2.129,2.129,0,0,1,9,13.831V11a1,1,0,0,0-1-1H6a6.006,6.006,0,0,0-6,6v4H64V16A6.006,6.006,0,0,0,58,10Z" style="fill:#e63b47"/><path d="M11,4A4,4,0,0,0,7,8v6a4,4,0,0,0,8,0V8A4,4,0,0,0,11,4Z" style="fill:#4aa4f2"/><path d="M25,4a4,4,0,0,0-4,4v6a4,4,0,0,0,8,0V8A4,4,0,0,0,25,4Z" style="fill:#4aa4f2"/><path d="M39,4a4,4,0,0,0-4,4v6a4,4,0,0,0,8,0V8A4,4,0,0,0,39,4Z" style="fill:#4aa4f2"/><path d="M53,4a4,4,0,0,0-4,4v6a4,4,0,0,0,8,0V8A4,4,0,0,0,53,4Z" style="fill:#4aa4f2"/><rect x="29" y="49" width="6" height="6" rx="1" ry="1" style="fill:#4aa4f2"/><rect x="37" y="49" width="6" height="6" rx="1" ry="1" style="fill:#4aa4f2"/><rect x="45" y="49" width="6" height="6" rx="1" ry="1" style="fill:#4aa4f2"/><rect x="53" y="49" width="6" height="6" rx="1" ry="1" style="fill:#4aa4f2"/><rect x="21" y="49" width="6" height="6" rx="1" ry="1" style="fill:#4aa4f2"/><rect x="13" y="49" width="6" height="6" rx="1" ry="1" style="fill:#4aa4f2"/><rect x="5" y="49" width="6" height="6" rx="1" ry="1" style="fill:#4aa4f2"/><rect x="29" y="41" width="6" height="6" rx="1" ry="1" style="fill:#4aa4f2"/><rect x="37" y="41" width="6" height="6" rx="1" ry="1" style="fill:#4aa4f2"/><rect x="45" y="41" width="6" height="6" rx="1" ry="1" style="fill:#4aa4f2"/><rect x="53" y="41" width="6" height="6" rx="1" ry="1" style="fill:#4aa4f2"/><rect x="21" y="41" width="6" height="6" rx="1" ry="1" style="fill:#4aa4f2"/><rect x="13" y="41" width="6" height="6" rx="1" ry="1" style="fill:#4aa4f2"/><rect x="5" y="41" width="6" height="6" rx="1" ry="1" style="fill:#4aa4f2"/><rect x="29" y="33" width="6" height="6" rx="1" ry="1" style="fill:#4aa4f2"/><rect x="37" y="33" width="6" height="6" rx="1" ry="1" style="fill:#4aa4f2"/><rect x="45" y="33" width="6" height="6" rx="1" ry="1" style="fill:#4aa4f2"/><rect x="53" y="33" width="6" height="6" rx="1" ry="1" style="fill:#4aa4f2"/><rect x="21" y="33" width="6" height="6" rx="1" ry="1" style="fill:#4aa4f2"/><rect x="13" y="33" width="6" height="6" rx="1" ry="1" style="fill:#4aa4f2"/><rect x="5" y="33" width="6" height="6" rx="1" ry="1" style="fill:#4aa4f2"/><path d="M58,29H6a1,1,0,0,0,0,2H58a1,1,0,0,0,0-2Z" style="fill:#4aa4f2"/><path d="M6,27h4a1,1,0,0,0,0-2H6a1,1,0,0,0,0,2Z" style="fill:#4aa4f2"/><path d="M14,27h4a1,1,0,0,0,0-2H14a1,1,0,0,0,0,2Z" style="fill:#4aa4f2"/><path d="M22,27h4a1,1,0,0,0,0-2H22a1,1,0,0,0,0,2Z" style="fill:#4aa4f2"/><path d="M30,27h4a1,1,0,0,0,0-2H30a1,1,0,0,0,0,2Z" style="fill:#4aa4f2"/><path d="M38,27h4a1,1,0,0,0,0-2H38a1,1,0,0,0,0,2Z" style="fill:#4aa4f2"/><path d="M46,27h4a1,1,0,0,0,0-2H46a1,1,0,0,0,0,2Z" style="fill:#4aa4f2"/><path d="M54,27h4a1,1,0,0,0,0-2H54a1,1,0,0,0,0,2Z" style="fill:#4aa4f2"/></g></svg>